<svg height='300px' width='300px'  fill="#000000" xmlns="http://www.w3.org/2000/svg" viewBox="0 0 100 100" x="0px" y="0px"><g><path d="M76.4627276 47.6154891C70.6571461 47.6154891 65.9493348 42.9197183 65.9493348 37.1253882 65.9493348 31.3310581 70.6571461 26.6352873 76.4627276 26.6352873 82.2683092 26.6352873 86.9761205 31.3310581 86.9761205 37.1253882 86.9761205 42.9197183 82.2683092 47.6154891 76.4627276 47.6154891zM76.4627276 44.8029891C80.7166183 44.8029891 84.1636205 41.3648028 84.1636205 37.1253882 84.1636205 32.8859736 80.7166183 29.4477873 76.4627276 29.4477873 72.208837 29.4477873 68.7618348 32.8859736 68.7618348 37.1253882 68.7618348 41.3648028 72.208837 44.8029891 76.4627276 44.8029891zM23.3377281 52.1574146C17.1739185 52.1574155 13.3264975 56.879772 11.3276503 65.057777 10.682911 67.6956378 10.2803428 70.529536 10.0764279 73.4078343 9.97351788 74.860429 9.93000867 76.1752251 9.9263752 77.2903722L27.0969754 77.2903722C27.8690681 69.7433477 29.4788962 62.8382876 32.1718957 57.2223288 30.0030388 53.9125775 27.1234153 52.1574141 23.3377281 52.1574146zM35.0335818 57.7773876C32.1609182 63.4521573 30.4927336 70.7727277 29.7758287 78.8213849L29.6616848 80.1028722 7.18848978 80.1028722 7.13353608 78.7538601C7.13095601 78.6905242 7.12734055 78.575885 7.1238088 78.4133265 7.09373734 77.0292032 7.12662391 75.2464046 7.27095953 73.2090791 7.48532623 70.1832515 7.90959367 67.1966009 8.59557356 64.3900098 10.8656996 55.1021055 15.556225 49.3449157 23.3377277 49.3449146 28.4307202 49.3449139 32.301779 51.9019258 34.9879645 56.4240886L35.3824553 57.0882093 35.0335818 57.7773876zM89.8740801 77.2903722C89.8704466 76.175225 89.8269374 74.8604288 89.7240275 73.407834 89.5201127 70.5295358 89.1175445 67.6956376 88.4728055 65.0577769 86.4739585 56.8797703 82.6265377 52.1574137 76.4627281 52.1574146 73.4239723 52.157415 70.9803048 53.2852183 69.0078923 55.4372666 72.2509974 61.3075772 74.1398475 68.8731671 75.0000964 77.2903722L89.8740801 77.2903722zM72.321176 78.8213848C71.521528 69.8437713 69.551861 61.8344543 66.0877154 55.9967117L65.59393 55.1645897 66.1946406 54.40604C68.7811091 51.1399661 72.2091703 49.3449152 76.4627277 49.3449146 84.2442311 49.3449135 88.9347565 55.1021038 91.2048823 64.3900099 91.8908619 67.1966009 92.3151292 70.1832513 92.5294958 73.2090789 92.6738314 75.2464044 92.7067179 77.0292029 92.6766465 78.4133263 92.6731147 78.575885 92.6694993 78.6905242 92.6669192 78.7538601L92.6119655 80.1028722 91.2618345 80.1028722 73.7218806 80.1028722 72.4353198 80.1028722 72.321176 78.8213848z"></path><path d="M72.4564876 80.5145852C72.1363836 75.996252 71.5041389 71.5455347 70.4897558 67.3953264 67.3050831 54.3656774 61.0860104 46.7323355 51.0485028 46.732337 41.0109954 46.7323384 34.7919227 54.36568 31.6072495 67.3953265 30.592866 71.545535 29.9606212 75.9962523 29.640517 80.5145856 29.4543778 83.1419759 29.3920972 85.482865 29.4068332 87.3905488L72.6901713 87.3905488C72.7049074 85.4828649 72.6426267 83.1419756 72.4564876 80.5145852zM51.0485024 43.919837C62.7037039 43.9198353 69.7658811 52.5880108 73.2218326 66.7275593 74.2774563 71.046498 74.9314001 75.6499676 75.261956 80.31583 75.4846518 83.4592257 75.535372 86.2087992 75.4890881 88.3391469 75.4837035 88.5869883 75.4782352 88.760378 75.4744199 88.8540367L75.4194662 90.2030488 26.6775383 90.2030488 26.6225846 88.8540367C26.6187693 88.760378 26.613301 88.5869885 26.6079164 88.3391471 26.5616325 86.2087995 26.6123528 83.4592261 26.8350486 80.3158304 27.1656047 75.6499678 27.8195487 71.0464981 28.8751728 66.7275592 32.3311247 52.5880135 39.3933019 43.9198386 51.0485024 43.919837zM23.3377276 47.6154891C17.5321461 47.6154891 12.8243348 42.9197183 12.8243348 37.1253882 12.8243348 31.3310581 17.5321461 26.6352873 23.3377276 26.6352873 29.1433092 26.6352873 33.8511205 31.3310581 33.8511205 37.1253882 33.8511205 42.9197183 29.1433092 47.6154891 23.3377276 47.6154891zM23.3377276 44.8029891C27.5916183 44.8029891 31.0386205 41.3648028 31.0386205 37.1253882 31.0386205 32.8859736 27.5916183 29.4477873 23.3377276 29.4477873 19.083837 29.4477873 15.6368348 32.8859736 15.6368348 37.1253882 15.6368348 41.3648028 19.083837 44.8029891 23.3377276 44.8029891zM51.0485023 39.6671196C42.4486229 39.6671196 35.4755856 32.7119161 35.4755856 24.1304348 35.4755856 15.5489534 42.4486229 8.59375 51.0485023 8.59375 59.6483816 8.59375 66.6214189 15.5489534 66.6214189 24.1304348 66.6214189 32.7119161 59.6483816 39.6671196 51.0485023 39.6671196zM51.0485023 36.8546196C58.0966908 36.8546196 63.8089189 31.1570007 63.8089189 24.1304348 63.8089189 17.1038689 58.0966908 11.40625 51.0485023 11.40625 44.0003137 11.40625 38.2880856 17.1038689 38.2880856 24.1304348 38.2880856 31.1570007 44.0003137 36.8546196 51.0485023 36.8546196z"></path></g></svg>