<svg height='300px' width='300px'  fill="#000000" xmlns="http://www.w3.org/2000/svg" xmlns:xlink="http://www.w3.org/1999/xlink" version="1.1" x="0px" y="0px" viewBox="0 0 100 100" enable-background="new 0 0 100 100" xml:space="preserve"><g><path d="M38.979,44.861c-3.525,0-6.393-2.868-6.393-6.393c0-3.525,2.868-6.393,6.393-6.393c3.525,0,6.393,2.868,6.393,6.393   C45.373,41.993,42.504,44.861,38.979,44.861z"></path></g><g><path d="M61.02,44.861c-3.525,0-6.395-2.868-6.395-6.393c0-3.525,2.867-6.393,6.395-6.393c3.525,0,6.395,2.868,6.395,6.393   C67.414,41.993,64.545,44.861,61.02,44.861z"></path></g><path d="M82.479,43.317C82.479,21.818,70.033,8.463,50,8.463c-20.032,0-32.477,13.355-32.477,34.854l-0.002,48.755  c0,0.467,0.325,0.887,0.82,1.062c0.496,0.173,1.063,0.071,1.438-0.264l6.588-10.483l6.594,10.75c0.243,0.229,0.584,0.359,0.94,0.365  c0.358-0.001,0.702-0.118,0.955-0.338l6.435-10.23l7.864,10.303c0.245,0.179,0.545,0.267,0.844,0.267  c0.346,0,0.69-0.119,0.946-0.353l6.574-10.543l6.086,10.248c0.245,0.229,0.59,0.359,0.948,0.363c0.345,0.012,0.705-0.123,0.955-0.35  l6.448-10.377l8.377,10.472c0.395,0.276,0.934,0.331,1.393,0.142s0.748-0.592,0.748-1.033L82.479,43.317z M79.845,88.529  l-7.169-9.623c-0.529-0.371-1.297-0.334-1.77,0.094l-6.323,10.266l-6.091-10.25c-0.246-0.229-0.59-0.361-0.95-0.363  c-0.005,0-0.007,0-0.009,0c-0.357,0-0.7,0.127-0.948,0.352l-6.686,10.645l-7.85-10.291c-0.523-0.379-1.294-0.35-1.775,0.072  l-6.321,10.129L27.351,78.8c-0.246-0.229-0.587-0.36-0.948-0.364c-0.363,0.012-0.706,0.121-0.958,0.346l-5.293,9.326l0.001-44.79  c0-20.389,11.157-31.416,29.847-31.416c18.688,0,29.847,11.026,29.847,31.416L79.845,88.529z"></path></svg>